# File created by Blade
# Date/Time:  Wed Apr 08 17:39:35 2015
# Frame Rate: 120.000 fps
#------------------------------------------------------
:FULLY-SPECIFIED
:DEGREES
3399
root 11.480123 36.975578 -1.399459 199.469302 -43.216389 -527.667055
Spine -15.414607 -1.886024 -1.736515
Head 38.805019 -25.494680 14.109283
LeftShoulder -7.267261 19.734116 17.360686
LeftArm 21.813038 19.463550 -72.593821
LeftForeArm 15.157850 -0.000000 28.558860
LeftHand -13.136970 -0.000000 -9.977698
LeftHandThumb1 -26.253704 0.000000 33.147579
RightShoulder -41.065193 -49.720009 22.817433
RightArm 49.365027 -13.619379 54.268590
RightForeArm 5.461898 0.000000 12.186845
RightHand -1.562644 0.000000 17.015690
RightHandThumb1 -24.326973 -0.000000 -32.862282
LeftUpLeg -36.375117 27.571335 -6.673272
LeftLeg 16.256183 -0.000000 -0.000000
LeftFoot -12.206455 23.633744 -6.090355
LeftToeBase 6.370541 -0.000000 -0.000000
RightUpLeg -35.272097 -2.200931 3.614390
RightLeg 22.842626 -0.000000 -0.000000
RightFoot -0.199341 -7.483454 20.167824
RightToeBase -8.579781 -0.000000 0.000000
3400
root 11.516149 36.965754 -1.469751 199.651795 -43.523075 -527.881589
Spine -15.582423 -1.629603 -1.676441
Head 38.782057 -25.369569 13.749851
LeftShoulder -7.338850 19.773602 17.303369
LeftArm 21.856227 19.354078 -72.733978
LeftForeArm 15.121986 -0.000000 28.760524
LeftHand -13.347973 -0.000000 -9.807470
LeftHandThumb1 -26.253704 0.000000 33.147579
RightShoulder -40.932049 -49.721809 22.594066
RightArm 49.441283 -13.696719 54.238407
RightForeArm 5.338418 0.000000 12.319178
RightHand -1.654802 0.000000 17.012073
RightHandThumb1 -24.326973 -0.000000 -32.862282
LeftUpLeg -36.816571 27.348233 -6.656122
LeftLeg 17.061287 -0.000000 -0.000000
LeftFoot -12.278143 23.584859 -6.262839
LeftToeBase 6.122021 -0.000000 -0.000000
RightUpLeg -35.314554 -2.692477 3.709716
RightLeg 23.035525 -0.000000 -0.000000
RightFoot -0.419385 -7.221896 20.313526
RightToeBase -9.125110 -0.000000 0.000000
3401
root 11.557713 36.958065 -1.541406 199.774481 -43.902811 -528.069670
Spine -15.673956 -1.452247 -1.594380
Head 38.770737 -25.296437 13.406398
LeftShoulder -7.353516 19.766462 17.307095
LeftArm 21.822969 19.196503 -72.959613
LeftForeArm 15.084006 -0.000000 28.945228
LeftHand -13.627119 -0.000000 -9.522530
LeftHandThumb1 -26.253704 0.000000 33.147579
RightShoulder -40.775086 -49.740022 22.363869
RightArm 49.526401 -13.716557 54.298523
RightForeArm 5.087734 0.000000 12.478788
RightHand -1.705841 -0.000000 17.204138
RightHandThumb1 -24.326973 -0.000000 -32.862282
LeftUpLeg -37.278884 27.074631 -6.565956
LeftLeg 17.987474 -0.000000 -0.000000
LeftFoot -12.232417 23.568186 -6.198398
LeftToeBase 5.659474 -0.000000 -0.000000
RightUpLeg -35.300549 -3.149571 3.788120
RightLeg 23.178411 -0.000000 -0.000000
RightFoot -0.583782 -6.753326 20.377414
RightToeBase -9.982848 -0.000000 0.000000
3402
root 11.599934 36.953245 -1.614553 199.781105 -44.261081 -528.225863
Spine -15.630053 -1.235332 -1.531009
Head 38.729685 -25.228183 13.149860
LeftShoulder -7.323092 19.739536 17.351375
LeftArm 21.803765 19.060676 -73.183877
LeftForeArm 15.082697 -0.000000 29.103668
LeftHand -13.508481 -0.000000 -9.500321
LeftHandThumb1 -26.253704 0.000000 33.147579
RightShoulder -40.640026 -49.706033 22.168593
RightArm 49.652642 -13.828347 54.238792
RightForeArm 4.859131 0.000000 12.653224
RightHand -1.743468 -0.000000 17.249005
RightHandThumb1 -24.326973 -0.000000 -32.862282
LeftUpLeg -37.715315 26.910511 -6.477298
LeftLeg 18.962627 -0.000000 -0.000000
LeftFoot -12.213767 23.563615 -6.210475
LeftToeBase 4.885736 -0.000000 -0.000000
RightUpLeg -35.191813 -3.425868 3.795983
RightLeg 23.312087 -0.000000 -0.000000
RightFoot -0.759067 -6.318807 20.359506
RightToeBase -10.261771 -0.000000 0.000000
